<svg xmlns="http://www.w3.org/2000/svg" viewBox="0 0 32 32" id="Sun"><g fill="#34a853" stroke-linejoin="round" color="#000" font-family="sans-serif" class="color464c63 svgShape"><path d="M706.107 1395.48a.5.5 0 1 0 0 1h2.487a.5.5 0 1 0 0-1zM710.1 1387.98a.5.5 0 0 0-.348.86l1.99 1.99a.5.5 0 1 0 .707-.707l-1.99-1.99a.5.5 0 0 0-.36-.153z" style="line-height:normal;text-indent:0;text-align:start;text-decoration-line:none;text-decoration-style:solid;text-decoration-color:#000;text-transform:none;isolation:auto;mix-blend-mode:normal" fill="#4285f4" fill-rule="evenodd" overflow="visible" transform="matrix(1 0 0 .99993 -703.6 -1376.387)" class="color3b3c3d svgShape"></path><path style="line-height:normal;text-indent:0;text-align:start;text-decoration-line:none;text-decoration-style:solid;text-decoration-color:#000;text-transform:none;isolation:auto;mix-blend-mode:normal" fill="#4285f4" d="M719.6 1390.981c-4.413 0-8 3.588-8 8h-3.493a.5.5 0 1 0 0 1h22.987a.5.5 0 1 0 0-1H727.6c0-4.412-3.588-8-8-8z" overflow="visible" transform="matrix(1 0 0 .99993 -703.6 -1376.387)" class="color3b3c3d svgShape"></path><path style="line-height:normal;text-indent:0;text-align:start;text-decoration-line:none;text-decoration-style:solid;text-decoration-color:#000;text-transform:none;isolation:auto;mix-blend-mode:normal" fill="#fbbc05" d="M719.6 1391.981c3.872 0 7 3.128 7 7h-14c0-3.872 3.128-7 7-7z" overflow="visible" transform="matrix(1 0 0 .99993 -703.6 -1376.387)" class="colorfede31 svgShape"></path><path d="M719.592 1384.982a.5.5 0 0 0-.493.508v2.344a.5.5 0 1 0 1 0v-2.344a.5.5 0 0 0-.507-.508z" style="line-height:normal;text-indent:0;text-align:start;text-decoration-line:none;text-decoration-style:solid;text-decoration-color:#000;text-transform:none;isolation:auto;mix-blend-mode:normal" fill-rule="evenodd" overflow="visible" transform="matrix(1 0 0 .99993 -703.6 -1376.387)" fill="#ea4335" class="color000000 svgShape"></path><path d="M719.592 1393.98a.5.5 0 0 0-.346.147l-2.494 2.496a.5.5 0 1 0 .707.707l2.14-2.142 2.143 2.142a.5.5 0 1 0 .707-.707l-2.496-2.496a.5.5 0 0 0-.361-.146zM719.592 1384.98a.5.5 0 0 0-.493.508v2.487a.5.5 0 1 0 1 0v-2.487a.5.5 0 0 0-.507-.508zM729.085 1387.98a.5.5 0 0 0-.343.153l-1.99 1.99a.5.5 0 1 0 .707.707l1.99-1.99a.5.5 0 0 0-.364-.86zM730.607 1395.48a.5.5 0 1 0 0 1h2.486a.5.5 0 1 0 0-1z" style="line-height:normal;text-indent:0;text-align:start;text-decoration-line:none;text-decoration-style:solid;text-decoration-color:#000;text-transform:none;isolation:auto;mix-blend-mode:normal" fill="#4285f4" fill-rule="evenodd" overflow="visible" transform="matrix(1 0 0 .99993 -703.6 -1376.387)" class="color3b3c3d svgShape"></path></g></svg>