<?xml version="1.0" encoding="UTF-8" standalone="no"?>
<svg id="svg9121" xmlns:rdf="http://www.w3.org/1999/02/22-rdf-syntax-ns#" xmlns="http://www.w3.org/2000/svg" height="152.4mm" width="152.4mm" version="1.1" xmlns:cc="http://creativecommons.org/ns#" xmlns:xlink="http://www.w3.org/1999/xlink" viewBox="0 0 539.99999 539.99999" xmlns:dc="http://purl.org/dc/elements/1.1/">
<defs id="defs9123">
<linearGradient id="linearGradient8520" y2="588.28" xlink:href="#c" gradientUnits="userSpaceOnUse" x2="151.98" y1="489.06" x1="140.41"/>
<linearGradient id="c">
<stop id="stop7" stop-color="#fff" offset="0"/>
<stop id="stop9" stop-color="#fff" stop-opacity="0" offset="1"/>
</linearGradient>
<linearGradient id="linearGradient8522" y2="625.07" xlink:href="#a" gradientUnits="userSpaceOnUse" x2="218.19" y1="558.61" x1="161.23"/>
<linearGradient id="a" y2="625.07" gradientUnits="userSpaceOnUse" y1="558.61" x2="218.19" x1="161.23">
<stop id="stop17" stop-color="#008080" stop-opacity=".65441" offset="0"/>
<stop id="stop19" stop-color="#003434" stop-opacity=".71323" offset="1"/>
</linearGradient>
<clipPath id="clipPath10750" clipPathUnits="userSpaceOnUse">
<rect id="rect10752" opacity="0.48" height="180" width="180" y="-79.514" x="-1367.6" fill="#2b0000"/>
</clipPath>
<pattern id="pattern10754" width="180" patternUnits="userSpaceOnUse" patternTransform="translate(-1367.6 -79.514)" height="180">
<g id="g10616" transform="translate(1367.6 79.514)" clip-path="url(#clipPath10750)">
<g id="g37" fill-rule="evenodd" transform="matrix(.20769 0 0 .20769 -1307.5 -43.402)">
<path id="path39" fill="#008080" d="m241.89 431.12c-53.59 77.54-107.89 102.01-119.07 121.37-11.193 19.386-5.2046 50.653 17.009 63.478s53.781-0.21451 63.477-17.009c9.6223-16.666 1.4932-80.776 38.581-167.84z"/>
<path id="path41" fill="url(#linearGradient8520)" d="m201.47 489.06c-1.1986 0.0366-2.3383 0.52825-3.1875 1.375-13.665 13.705-28.179 26.544-43.375 38.438l-0.15625 0.125c-10.413 8.8512-20.995 15.626-27.906 25.656-0.10172 0.14055-0.19562 0.28661-0.28125 0.4375-4.374 8.0981-5.8345 17.919-3.8438 26.75 0.0767 0.34516 0.19206 0.6806 0.34375 1 0.85637 1.7986 2.0955 3.1017 3.5938 4.0625s3.4547 1.9666 6.25 0.9375c0.18136-0.0621 0.35877-0.13511 0.53125-0.21875l0.0625-0.0312v-0.0312c11.213-4.1455 19.516-14.011 28.219-24l0.0937-0.125c16.907-20.913 31.143-43.707 43.969-67.406 0.80904-1.4882 0.75822-3.2959-0.13316-4.7363s-2.4865-2.2925-4.1793-2.2324z"/>
<path id="path43" fill="url(#linearGradient8522)" d="m196.27 558.65c-5.7557 1.4292-6.4936 9.1221-10.258 12.967-6.4681 10.582-15.088 19.69-24.055 27.876-2.8612 4.7136 3.3489 9.6549 7.75 6.8438 13.615-3.9368 28.766-13.223 30.229-28.705 0.11687-5.5512 3.5348-11.709 0.95814-16.952-1.0057-1.4577-2.8625-2.2462-4.625-2.0312z"/>
</g>
<g id="g45" fill-rule="evenodd" transform="matrix(.20769 0 0 .20769 -1292.6 -10.066)">
<path id="path47" fill="#008080" d="m241.89 431.12c-53.59 77.54-107.89 102.01-119.07 121.37-11.193 19.386-5.2046 50.653 17.009 63.478s53.781-0.21451 63.477-17.009c9.6223-16.666 1.4932-80.776 38.581-167.84z"/>
<path id="path49" fill="url(#linearGradient8520)" d="m201.47 489.06c-1.1986 0.0366-2.3383 0.52825-3.1875 1.375-13.665 13.705-28.179 26.544-43.375 38.438l-0.15625 0.125c-10.413 8.8512-20.995 15.626-27.906 25.656-0.10172 0.14055-0.19562 0.28661-0.28125 0.4375-4.374 8.0981-5.8345 17.919-3.8438 26.75 0.0767 0.34516 0.19206 0.6806 0.34375 1 0.85637 1.7986 2.0955 3.1017 3.5938 4.0625s3.4547 1.9666 6.25 0.9375c0.18136-0.0621 0.35877-0.13511 0.53125-0.21875l0.0625-0.0312v-0.0312c11.213-4.1455 19.516-14.011 28.219-24l0.0937-0.125c16.907-20.913 31.143-43.707 43.969-67.406 0.80904-1.4882 0.75822-3.2959-0.13316-4.7363s-2.4865-2.2925-4.1793-2.2324z"/>
<path id="path51" fill="url(#linearGradient8522)" d="m196.27 558.65c-5.7557 1.4292-6.4936 9.1221-10.258 12.967-6.4681 10.582-15.088 19.69-24.055 27.876-2.8612 4.7136 3.3489 9.6549 7.75 6.8438 13.615-3.9368 28.766-13.223 30.229-28.705 0.11687-5.5512 3.5348-11.709 0.95814-16.952-1.0057-1.4577-2.8625-2.2462-4.625-2.0312z"/>
</g>
<g id="g53" fill-rule="evenodd" transform="matrix(.11387 0 0 .11387 -1321.3 29.155)">
<path id="path55" fill="#008080" d="m241.89 431.12c-53.59 77.54-107.89 102.01-119.07 121.37-11.193 19.386-5.2046 50.653 17.009 63.478s53.781-0.21451 63.477-17.009c9.6223-16.666 1.4932-80.776 38.581-167.84z"/>
<path id="path57" fill="url(#linearGradient8520)" d="m201.47 489.06c-1.1986 0.0366-2.3383 0.52825-3.1875 1.375-13.665 13.705-28.179 26.544-43.375 38.438l-0.15625 0.125c-10.413 8.8512-20.995 15.626-27.906 25.656-0.10172 0.14055-0.19562 0.28661-0.28125 0.4375-4.374 8.0981-5.8345 17.919-3.8438 26.75 0.0767 0.34516 0.19206 0.6806 0.34375 1 0.85637 1.7986 2.0955 3.1017 3.5938 4.0625s3.4547 1.9666 6.25 0.9375c0.18136-0.0621 0.35877-0.13511 0.53125-0.21875l0.0625-0.0312v-0.0312c11.213-4.1455 19.516-14.011 28.219-24l0.0937-0.125c16.907-20.913 31.143-43.707 43.969-67.406 0.80904-1.4882 0.75822-3.2959-0.13316-4.7363s-2.4865-2.2925-4.1793-2.2324z"/>
<path id="path59" fill="url(#linearGradient8522)" d="m196.27 558.65c-5.7557 1.4292-6.4936 9.1221-10.258 12.967-6.4681 10.582-15.088 19.69-24.055 27.876-2.8612 4.7136 3.3489 9.6549 7.75 6.8438 13.615-3.9368 28.766-13.223 30.229-28.705 0.11687-5.5512 3.5348-11.709 0.95814-16.952-1.0057-1.4577-2.8625-2.2462-4.625-2.0312z"/>
</g>
<g id="g61" fill-rule="evenodd" transform="matrix(.16249 0 0 .16249 -1271.4 -29.273)">
<path id="path63" fill="#008080" d="m241.89 431.12c-53.59 77.54-107.89 102.01-119.07 121.37-11.193 19.386-5.2046 50.653 17.009 63.478s53.781-0.21451 63.477-17.009c9.6223-16.666 1.4932-80.776 38.581-167.84z"/>
<path id="path65" fill="url(#linearGradient8520)" d="m201.47 489.06c-1.1986 0.0366-2.3383 0.52825-3.1875 1.375-13.665 13.705-28.179 26.544-43.375 38.438l-0.15625 0.125c-10.413 8.8512-20.995 15.626-27.906 25.656-0.10172 0.14055-0.19562 0.28661-0.28125 0.4375-4.374 8.0981-5.8345 17.919-3.8438 26.75 0.0767 0.34516 0.19206 0.6806 0.34375 1 0.85637 1.7986 2.0955 3.1017 3.5938 4.0625s3.4547 1.9666 6.25 0.9375c0.18136-0.0621 0.35877-0.13511 0.53125-0.21875l0.0625-0.0312v-0.0312c11.213-4.1455 19.516-14.011 28.219-24l0.0937-0.125c16.907-20.913 31.143-43.707 43.969-67.406 0.80904-1.4882 0.75822-3.2959-0.13316-4.7363s-2.4865-2.2925-4.1793-2.2324z"/>
<path id="path67" fill="url(#linearGradient8522)" d="m196.27 558.65c-5.7557 1.4292-6.4936 9.1221-10.258 12.967-6.4681 10.582-15.088 19.69-24.055 27.876-2.8612 4.7136 3.3489 9.6549 7.75 6.8438 13.615-3.9368 28.766-13.223 30.229-28.705 0.11687-5.5512 3.5348-11.709 0.95814-16.952-1.0057-1.4577-2.8625-2.2462-4.625-2.0312z"/>
</g>
<g id="g7400" fill-rule="evenodd" transform="matrix(.20769 0 0 .20769 -1367.5 -9.468)">
<path id="path7402" fill="#008080" d="m241.89 431.12c-53.59 77.54-107.89 102.01-119.07 121.37-11.193 19.386-5.2046 50.653 17.009 63.478s53.781-0.21451 63.477-17.009c9.6223-16.666 1.4932-80.776 38.581-167.84z"/>
<path id="path7404" fill="url(#linearGradient8520)" d="m201.47 489.06c-1.1986 0.0366-2.3383 0.52825-3.1875 1.375-13.665 13.705-28.179 26.544-43.375 38.438l-0.15625 0.125c-10.413 8.8512-20.995 15.626-27.906 25.656-0.10172 0.14055-0.19562 0.28661-0.28125 0.4375-4.374 8.0981-5.8345 17.919-3.8438 26.75 0.0767 0.34516 0.19206 0.6806 0.34375 1 0.85637 1.7986 2.0955 3.1017 3.5938 4.0625s3.4547 1.9666 6.25 0.9375c0.18136-0.0621 0.35877-0.13511 0.53125-0.21875l0.0625-0.0312v-0.0312c11.213-4.1455 19.516-14.011 28.219-24l0.0937-0.125c16.907-20.913 31.143-43.707 43.969-67.406 0.80904-1.4882 0.75822-3.2959-0.13316-4.7363s-2.4865-2.2925-4.1793-2.2324z"/>
<path id="path7406" fill="url(#linearGradient8522)" d="m196.27 558.65c-5.7557 1.4292-6.4936 9.1221-10.258 12.967-6.4681 10.582-15.088 19.69-24.055 27.876-2.8612 4.7136 3.3489 9.6549 7.75 6.8438 13.615-3.9368 28.766-13.223 30.229-28.705 0.11687-5.5512 3.5348-11.709 0.95814-16.952-1.0057-1.4577-2.8625-2.2462-4.625-2.0312z"/>
</g>
<g id="g7424" fill-rule="evenodd" transform="matrix(.11387 0 0 .11387 -1238 -.83961)">
<path id="path7426" fill="#008080" d="m241.89 431.12c-53.59 77.54-107.89 102.01-119.07 121.37-11.193 19.386-5.2046 50.653 17.009 63.478s53.781-0.21451 63.477-17.009c9.6223-16.666 1.4932-80.776 38.581-167.84z"/>
<path id="path7428" fill="url(#linearGradient8520)" d="m201.47 489.06c-1.1986 0.0366-2.3383 0.52825-3.1875 1.375-13.665 13.705-28.179 26.544-43.375 38.438l-0.15625 0.125c-10.413 8.8512-20.995 15.626-27.906 25.656-0.10172 0.14055-0.19562 0.28661-0.28125 0.4375-4.374 8.0981-5.8345 17.919-3.8438 26.75 0.0767 0.34516 0.19206 0.6806 0.34375 1 0.85637 1.7986 2.0955 3.1017 3.5938 4.0625s3.4547 1.9666 6.25 0.9375c0.18136-0.0621 0.35877-0.13511 0.53125-0.21875l0.0625-0.0312v-0.0312c11.213-4.1455 19.516-14.011 28.219-24l0.0937-0.125c16.907-20.913 31.143-43.707 43.969-67.406 0.80904-1.4882 0.75822-3.2959-0.13316-4.7363s-2.4865-2.2925-4.1793-2.2324z"/>
<path id="path7430" fill="url(#linearGradient8522)" d="m196.27 558.65c-5.7557 1.4292-6.4936 9.1221-10.258 12.967-6.4681 10.582-15.088 19.69-24.055 27.876-2.8612 4.7136 3.3489 9.6549 7.75 6.8438 13.615-3.9368 28.766-13.223 30.229-28.705 0.11687-5.5512 3.5348-11.709 0.95814-16.952-1.0057-1.4577-2.8625-2.2462-4.625-2.0312z"/>
</g>
<g id="g7842" fill-rule="evenodd" transform="matrix(.20769 0 0 .20769 -1343.5 -169.21)">
<path id="path7844" fill="#008080" d="m241.89 431.12c-53.59 77.54-107.89 102.01-119.07 121.37-11.193 19.386-5.2046 50.653 17.009 63.478s53.781-0.21451 63.477-17.009c9.6223-16.666 1.4932-80.776 38.581-167.84z"/>
<path id="path7846" fill="url(#linearGradient8520)" d="m201.47 489.06c-1.1986 0.0366-2.3383 0.52825-3.1875 1.375-13.665 13.705-28.179 26.544-43.375 38.438l-0.15625 0.125c-10.413 8.8512-20.995 15.626-27.906 25.656-0.10172 0.14055-0.19562 0.28661-0.28125 0.4375-4.374 8.0981-5.8345 17.919-3.8438 26.75 0.0767 0.34516 0.19206 0.6806 0.34375 1 0.85637 1.7986 2.0955 3.1017 3.5938 4.0625s3.4547 1.9666 6.25 0.9375c0.18136-0.0621 0.35877-0.13511 0.53125-0.21875l0.0625-0.0312v-0.0312c11.213-4.1455 19.516-14.011 28.219-24l0.0937-0.125c16.907-20.913 31.143-43.707 43.969-67.406 0.80904-1.4882 0.75822-3.2959-0.13316-4.7363s-2.4865-2.2925-4.1793-2.2324z"/>
<path id="path7848" fill="url(#linearGradient8522)" d="m196.27 558.65c-5.7557 1.4292-6.4936 9.1221-10.258 12.967-6.4681 10.582-15.088 19.69-24.055 27.876-2.8612 4.7136 3.3489 9.6549 7.75 6.8438 13.615-3.9368 28.766-13.223 30.229-28.705 0.11687-5.5512 3.5348-11.709 0.95814-16.952-1.0057-1.4577-2.8625-2.2462-4.625-2.0312z"/>
</g>
<g id="g7850" fill-rule="evenodd" transform="matrix(.11387 0 0 .11387 -1390.5 -132.48)">
<path id="path7852" fill="#008080" d="m241.89 431.12c-53.59 77.54-107.89 102.01-119.07 121.37-11.193 19.386-5.2046 50.653 17.009 63.478s53.781-0.21451 63.477-17.009c9.6223-16.666 1.4932-80.776 38.581-167.84z"/>
<path id="path7854" fill="url(#linearGradient8520)" d="m201.47 489.06c-1.1986 0.0366-2.3383 0.52825-3.1875 1.375-13.665 13.705-28.179 26.544-43.375 38.438l-0.15625 0.125c-10.413 8.8512-20.995 15.626-27.906 25.656-0.10172 0.14055-0.19562 0.28661-0.28125 0.4375-4.374 8.0981-5.8345 17.919-3.8438 26.75 0.0767 0.34516 0.19206 0.6806 0.34375 1 0.85637 1.7986 2.0955 3.1017 3.5938 4.0625s3.4547 1.9666 6.25 0.9375c0.18136-0.0621 0.35877-0.13511 0.53125-0.21875l0.0625-0.0312v-0.0312c11.213-4.1455 19.516-14.011 28.219-24l0.0937-0.125c16.907-20.913 31.143-43.707 43.969-67.406 0.80904-1.4882 0.75822-3.2959-0.13316-4.7363s-2.4865-2.2925-4.1793-2.2324z"/>
<path id="path7856" fill="url(#linearGradient8522)" d="m196.27 558.65c-5.7557 1.4292-6.4936 9.1221-10.258 12.967-6.4681 10.582-15.088 19.69-24.055 27.876-2.8612 4.7136 3.3489 9.6549 7.75 6.8438 13.615-3.9368 28.766-13.223 30.229-28.705 0.11687-5.5512 3.5348-11.709 0.95814-16.952-1.0057-1.4577-2.8625-2.2462-4.625-2.0312z"/>
</g>
<g id="g7882" fill-rule="evenodd" transform="matrix(.20769 0 0 .20769 -1331.8 -135.04)">
<path id="path7884" fill="#008080" d="m241.89 431.12c-53.59 77.54-107.89 102.01-119.07 121.37-11.193 19.386-5.2046 50.653 17.009 63.478s53.781-0.21451 63.477-17.009c9.6223-16.666 1.4932-80.776 38.581-167.84z"/>
<path id="path7886" fill="url(#linearGradient8520)" d="m201.47 489.06c-1.1986 0.0366-2.3383 0.52825-3.1875 1.375-13.665 13.705-28.179 26.544-43.375 38.438l-0.15625 0.125c-10.413 8.8512-20.995 15.626-27.906 25.656-0.10172 0.14055-0.19562 0.28661-0.28125 0.4375-4.374 8.0981-5.8345 17.919-3.8438 26.75 0.0767 0.34516 0.19206 0.6806 0.34375 1 0.85637 1.7986 2.0955 3.1017 3.5938 4.0625s3.4547 1.9666 6.25 0.9375c0.18136-0.0621 0.35877-0.13511 0.53125-0.21875l0.0625-0.0312v-0.0312c11.213-4.1455 19.516-14.011 28.219-24l0.0937-0.125c16.907-20.913 31.143-43.707 43.969-67.406 0.80904-1.4882 0.75822-3.2959-0.13316-4.7363s-2.4865-2.2925-4.1793-2.2324z"/>
<path id="path7888" fill="url(#linearGradient8522)" d="m196.27 558.65c-5.7557 1.4292-6.4936 9.1221-10.258 12.967-6.4681 10.582-15.088 19.69-24.055 27.876-2.8612 4.7136 3.3489 9.6549 7.75 6.8438 13.615-3.9368 28.766-13.223 30.229-28.705 0.11687-5.5512 3.5348-11.709 0.95814-16.952-1.0057-1.4577-2.8625-2.2462-4.625-2.0312z"/>
</g>
<g id="g7890" fill-rule="evenodd" transform="matrix(.11387 0 0 .11387 -1344.6 -64.162)">
<path id="path7892" fill="#008080" d="m241.89 431.12c-53.59 77.54-107.89 102.01-119.07 121.37-11.193 19.386-5.2046 50.653 17.009 63.478s53.781-0.21451 63.477-17.009c9.6223-16.666 1.4932-80.776 38.581-167.84z"/>
<path id="path7894" fill="url(#linearGradient8520)" d="m201.47 489.06c-1.1986 0.0366-2.3383 0.52825-3.1875 1.375-13.665 13.705-28.179 26.544-43.375 38.438l-0.15625 0.125c-10.413 8.8512-20.995 15.626-27.906 25.656-0.10172 0.14055-0.19562 0.28661-0.28125 0.4375-4.374 8.0981-5.8345 17.919-3.8438 26.75 0.0767 0.34516 0.19206 0.6806 0.34375 1 0.85637 1.7986 2.0955 3.1017 3.5938 4.0625s3.4547 1.9666 6.25 0.9375c0.18136-0.0621 0.35877-0.13511 0.53125-0.21875l0.0625-0.0312v-0.0312c11.213-4.1455 19.516-14.011 28.219-24l0.0937-0.125c16.907-20.913 31.143-43.707 43.969-67.406 0.80904-1.4882 0.75822-3.2959-0.13316-4.7363s-2.4865-2.2925-4.1793-2.2324z"/>
<path id="path7896" fill="url(#linearGradient8522)" d="m196.27 558.65c-5.7557 1.4292-6.4936 9.1221-10.258 12.967-6.4681 10.582-15.088 19.69-24.055 27.876-2.8612 4.7136 3.3489 9.6549 7.75 6.8438 13.615-3.9368 28.766-13.223 30.229-28.705 0.11687-5.5512 3.5348-11.709 0.95814-16.952-1.0057-1.4577-2.8625-2.2462-4.625-2.0312z"/>
</g>
<g id="g7898" fill-rule="evenodd" transform="matrix(.16249 0 0 .16249 -1395.5 -123.42)">
<path id="path7900" fill="#008080" d="m241.89 431.12c-53.59 77.54-107.89 102.01-119.07 121.37-11.193 19.386-5.2046 50.653 17.009 63.478s53.781-0.21451 63.477-17.009c9.6223-16.666 1.4932-80.776 38.581-167.84z"/>
<path id="path7902" fill="url(#linearGradient8520)" d="m201.47 489.06c-1.1986 0.0366-2.3383 0.52825-3.1875 1.375-13.665 13.705-28.179 26.544-43.375 38.438l-0.15625 0.125c-10.413 8.8512-20.995 15.626-27.906 25.656-0.10172 0.14055-0.19562 0.28661-0.28125 0.4375-4.374 8.0981-5.8345 17.919-3.8438 26.75 0.0767 0.34516 0.19206 0.6806 0.34375 1 0.85637 1.7986 2.0955 3.1017 3.5938 4.0625s3.4547 1.9666 6.25 0.9375c0.18136-0.0621 0.35877-0.13511 0.53125-0.21875l0.0625-0.0312v-0.0312c11.213-4.1455 19.516-14.011 28.219-24l0.0937-0.125c16.907-20.913 31.143-43.707 43.969-67.406 0.80904-1.4882 0.75822-3.2959-0.13316-4.7363s-2.4865-2.2925-4.1793-2.2324z"/>
<path id="path7904" fill="url(#linearGradient8522)" d="m196.27 558.65c-5.7557 1.4292-6.4936 9.1221-10.258 12.967-6.4681 10.582-15.088 19.69-24.055 27.876-2.8612 4.7136 3.3489 9.6549 7.75 6.8438 13.615-3.9368 28.766-13.223 30.229-28.705 0.11687-5.5512 3.5348-11.709 0.95814-16.952-1.0057-1.4577-2.8625-2.2462-4.625-2.0312z"/>
</g>
<g id="g7906" fill-rule="evenodd" transform="matrix(.19181 0 0 .19181 -1341.2 -84.942)">
<path id="path7908" fill="#008080" d="m241.89 431.12c-53.59 77.54-107.89 102.01-119.07 121.37-11.193 19.386-5.2046 50.653 17.009 63.478s53.781-0.21451 63.477-17.009c9.6223-16.666 1.4932-80.776 38.581-167.84z"/>
<path id="path7910" fill="url(#linearGradient8520)" d="m201.47 489.06c-1.1986 0.0366-2.3383 0.52825-3.1875 1.375-13.665 13.705-28.179 26.544-43.375 38.438l-0.15625 0.125c-10.413 8.8512-20.995 15.626-27.906 25.656-0.10172 0.14055-0.19562 0.28661-0.28125 0.4375-4.374 8.0981-5.8345 17.919-3.8438 26.75 0.0767 0.34516 0.19206 0.6806 0.34375 1 0.85637 1.7986 2.0955 3.1017 3.5938 4.0625s3.4547 1.9666 6.25 0.9375c0.18136-0.0621 0.35877-0.13511 0.53125-0.21875l0.0625-0.0312v-0.0312c11.213-4.1455 19.516-14.011 28.219-24l0.0937-0.125c16.907-20.913 31.143-43.707 43.969-67.406 0.80904-1.4882 0.75822-3.2959-0.13316-4.7363s-2.4865-2.2925-4.1793-2.2324z"/>
<path id="path7912" fill="url(#linearGradient8522)" d="m196.27 558.65c-5.7557 1.4292-6.4936 9.1221-10.258 12.967-6.4681 10.582-15.088 19.69-24.055 27.876-2.8612 4.7136 3.3489 9.6549 7.75 6.8438 13.615-3.9368 28.766-13.223 30.229-28.705 0.11687-5.5512 3.5348-11.709 0.95814-16.952-1.0057-1.4577-2.8625-2.2462-4.625-2.0312z"/>
</g>
<g id="g7914" fill-rule="evenodd" transform="matrix(.19181 0 0 .19181 -1397.9 -98.891)">
<path id="path7916" fill="#008080" d="m241.89 431.12c-53.59 77.54-107.89 102.01-119.07 121.37-11.193 19.386-5.2046 50.653 17.009 63.478s53.781-0.21451 63.477-17.009c9.6223-16.666 1.4932-80.776 38.581-167.84z"/>
<path id="path7918" fill="url(#linearGradient8520)" d="m201.47 489.06c-1.1986 0.0366-2.3383 0.52825-3.1875 1.375-13.665 13.705-28.179 26.544-43.375 38.438l-0.15625 0.125c-10.413 8.8512-20.995 15.626-27.906 25.656-0.10172 0.14055-0.19562 0.28661-0.28125 0.4375-4.374 8.0981-5.8345 17.919-3.8438 26.75 0.0767 0.34516 0.19206 0.6806 0.34375 1 0.85637 1.7986 2.0955 3.1017 3.5938 4.0625s3.4547 1.9666 6.25 0.9375c0.18136-0.0621 0.35877-0.13511 0.53125-0.21875l0.0625-0.0312v-0.0312c11.213-4.1455 19.516-14.011 28.219-24l0.0937-0.125c16.907-20.913 31.143-43.707 43.969-67.406 0.80904-1.4882 0.75822-3.2959-0.13316-4.7363s-2.4865-2.2925-4.1793-2.2324z"/>
<path id="path7920" fill="url(#linearGradient8522)" d="m196.27 558.65c-5.7557 1.4292-6.4936 9.1221-10.258 12.967-6.4681 10.582-15.088 19.69-24.055 27.876-2.8612 4.7136 3.3489 9.6549 7.75 6.8438 13.615-3.9368 28.766-13.223 30.229-28.705 0.11687-5.5512 3.5348-11.709 0.95814-16.952-1.0057-1.4577-2.8625-2.2462-4.625-2.0312z"/>
</g>
<g id="g7922" fill-rule="evenodd" transform="matrix(.19181 0 0 .19181 -1383.3 -67.408)">
<path id="path7924" fill="#008080" d="m241.89 431.12c-53.59 77.54-107.89 102.01-119.07 121.37-11.193 19.386-5.2046 50.653 17.009 63.478s53.781-0.21451 63.477-17.009c9.6223-16.666 1.4932-80.776 38.581-167.84z"/>
<path id="path7926" fill="url(#linearGradient8520)" d="m201.47 489.06c-1.1986 0.0366-2.3383 0.52825-3.1875 1.375-13.665 13.705-28.179 26.544-43.375 38.438l-0.15625 0.125c-10.413 8.8512-20.995 15.626-27.906 25.656-0.10172 0.14055-0.19562 0.28661-0.28125 0.4375-4.374 8.0981-5.8345 17.919-3.8438 26.75 0.0767 0.34516 0.19206 0.6806 0.34375 1 0.85637 1.7986 2.0955 3.1017 3.5938 4.0625s3.4547 1.9666 6.25 0.9375c0.18136-0.0621 0.35877-0.13511 0.53125-0.21875l0.0625-0.0312v-0.0312c11.213-4.1455 19.516-14.011 28.219-24l0.0937-0.125c16.907-20.913 31.143-43.707 43.969-67.406 0.80904-1.4882 0.75822-3.2959-0.13316-4.7363s-2.4865-2.2925-4.1793-2.2324z"/>
<path id="path7928" fill="url(#linearGradient8522)" d="m196.27 558.65c-5.7557 1.4292-6.4936 9.1221-10.258 12.967-6.4681 10.582-15.088 19.69-24.055 27.876-2.8612 4.7136 3.3489 9.6549 7.75 6.8438 13.615-3.9368 28.766-13.223 30.229-28.705 0.11687-5.5512 3.5348-11.709 0.95814-16.952-1.0057-1.4577-2.8625-2.2462-4.625-2.0312z"/>
</g>
<g id="g7930" fill-rule="evenodd" transform="matrix(.10516 0 0 .10516 -1386.4 20.61)">
<path id="path7932" fill="#008080" d="m241.89 431.12c-53.59 77.54-107.89 102.01-119.07 121.37-11.193 19.386-5.2046 50.653 17.009 63.478s53.781-0.21451 63.477-17.009c9.6223-16.666 1.4932-80.776 38.581-167.84z"/>
<path id="path7934" fill="url(#linearGradient8520)" d="m201.47 489.06c-1.1986 0.0366-2.3383 0.52825-3.1875 1.375-13.665 13.705-28.179 26.544-43.375 38.438l-0.15625 0.125c-10.413 8.8512-20.995 15.626-27.906 25.656-0.10172 0.14055-0.19562 0.28661-0.28125 0.4375-4.374 8.0981-5.8345 17.919-3.8438 26.75 0.0767 0.34516 0.19206 0.6806 0.34375 1 0.85637 1.7986 2.0955 3.1017 3.5938 4.0625s3.4547 1.9666 6.25 0.9375c0.18136-0.0621 0.35877-0.13511 0.53125-0.21875l0.0625-0.0312v-0.0312c11.213-4.1455 19.516-14.011 28.219-24l0.0937-0.125c16.907-20.913 31.143-43.707 43.969-67.406 0.80904-1.4882 0.75822-3.2959-0.13316-4.7363s-2.4865-2.2925-4.1793-2.2324z"/>
<path id="path7936" fill="url(#linearGradient8522)" d="m196.27 558.65c-5.7557 1.4292-6.4936 9.1221-10.258 12.967-6.4681 10.582-15.088 19.69-24.055 27.876-2.8612 4.7136 3.3489 9.6549 7.75 6.8438 13.615-3.9368 28.766-13.223 30.229-28.705 0.11687-5.5512 3.5348-11.709 0.95814-16.952-1.0057-1.4577-2.8625-2.2462-4.625-2.0312z"/>
</g>
<g id="g7938" fill-rule="evenodd" transform="matrix(.15007 0 0 .15007 -1360.3 -15.021)">
<path id="path7940" fill="#008080" d="m241.89 431.12c-53.59 77.54-107.89 102.01-119.07 121.37-11.193 19.386-5.2046 50.653 17.009 63.478s53.781-0.21451 63.477-17.009c9.6223-16.666 1.4932-80.776 38.581-167.84z"/>
<path id="path7942" fill="url(#linearGradient8520)" d="m201.47 489.06c-1.1986 0.0366-2.3383 0.52825-3.1875 1.375-13.665 13.705-28.179 26.544-43.375 38.438l-0.15625 0.125c-10.413 8.8512-20.995 15.626-27.906 25.656-0.10172 0.14055-0.19562 0.28661-0.28125 0.4375-4.374 8.0981-5.8345 17.919-3.8438 26.75 0.0767 0.34516 0.19206 0.6806 0.34375 1 0.85637 1.7986 2.0955 3.1017 3.5938 4.0625s3.4547 1.9666 6.25 0.9375c0.18136-0.0621 0.35877-0.13511 0.53125-0.21875l0.0625-0.0312v-0.0312c11.213-4.1455 19.516-14.011 28.219-24l0.0937-0.125c16.907-20.913 31.143-43.707 43.969-67.406 0.80904-1.4882 0.75822-3.2959-0.13316-4.7363s-2.4865-2.2925-4.1793-2.2324z"/>
<path id="path7944" fill="url(#linearGradient8522)" d="m196.27 558.65c-5.7557 1.4292-6.4936 9.1221-10.258 12.967-6.4681 10.582-15.088 19.69-24.055 27.876-2.8612 4.7136 3.3489 9.6549 7.75 6.8438 13.615-3.9368 28.766-13.223 30.229-28.705 0.11687-5.5512 3.5348-11.709 0.95814-16.952-1.0057-1.4577-2.8625-2.2462-4.625-2.0312z"/>
</g>
<g id="g7978" fill-rule="evenodd" transform="matrix(.15007 0 0 .15007 -1362.8 -123.5)">
<path id="path7980" fill="#008080" d="m241.89 431.12c-53.59 77.54-107.89 102.01-119.07 121.37-11.193 19.386-5.2046 50.653 17.009 63.478s53.781-0.21451 63.477-17.009c9.6223-16.666 1.4932-80.776 38.581-167.84z"/>
<path id="path7982" fill="url(#linearGradient8520)" d="m201.47 489.06c-1.1986 0.0366-2.3383 0.52825-3.1875 1.375-13.665 13.705-28.179 26.544-43.375 38.438l-0.15625 0.125c-10.413 8.8512-20.995 15.626-27.906 25.656-0.10172 0.14055-0.19562 0.28661-0.28125 0.4375-4.374 8.0981-5.8345 17.919-3.8438 26.75 0.0767 0.34516 0.19206 0.6806 0.34375 1 0.85637 1.7986 2.0955 3.1017 3.5938 4.0625s3.4547 1.9666 6.25 0.9375c0.18136-0.0621 0.35877-0.13511 0.53125-0.21875l0.0625-0.0312v-0.0312c11.213-4.1455 19.516-14.011 28.219-24l0.0937-0.125c16.907-20.913 31.143-43.707 43.969-67.406 0.80904-1.4882 0.75822-3.2959-0.13316-4.7363s-2.4865-2.2925-4.1793-2.2324z"/>
<path id="path7984" fill="url(#linearGradient8522)" d="m196.27 558.65c-5.7557 1.4292-6.4936 9.1221-10.258 12.967-6.4681 10.582-15.088 19.69-24.055 27.876-2.8612 4.7136 3.3489 9.6549 7.75 6.8438 13.615-3.9368 28.766-13.223 30.229-28.705 0.11687-5.5512 3.5348-11.709 0.95814-16.952-1.0057-1.4577-2.8625-2.2462-4.625-2.0312z"/>
</g>
<g id="g8098" fill-rule="evenodd" transform="matrix(.16249 0 0 .16249 -1328.1 -36.771)">
<path id="path8100" fill="#008080" d="m241.89 431.12c-53.59 77.54-107.89 102.01-119.07 121.37-11.193 19.386-5.2046 50.653 17.009 63.478s53.781-0.21451 63.477-17.009c9.6223-16.666 1.4932-80.776 38.581-167.84z"/>
<path id="path8102" fill="url(#linearGradient8520)" d="m201.47 489.06c-1.1986 0.0366-2.3383 0.52825-3.1875 1.375-13.665 13.705-28.179 26.544-43.375 38.438l-0.15625 0.125c-10.413 8.8512-20.995 15.626-27.906 25.656-0.10172 0.14055-0.19562 0.28661-0.28125 0.4375-4.374 8.0981-5.8345 17.919-3.8438 26.75 0.0767 0.34516 0.19206 0.6806 0.34375 1 0.85637 1.7986 2.0955 3.1017 3.5938 4.0625s3.4547 1.9666 6.25 0.9375c0.18136-0.0621 0.35877-0.13511 0.53125-0.21875l0.0625-0.0312v-0.0312c11.213-4.1455 19.516-14.011 28.219-24l0.0937-0.125c16.907-20.913 31.143-43.707 43.969-67.406 0.80904-1.4882 0.75822-3.2959-0.13316-4.7363s-2.4865-2.2925-4.1793-2.2324z"/>
<path id="path8104" fill="url(#linearGradient8522)" d="m196.27 558.65c-5.7557 1.4292-6.4936 9.1221-10.258 12.967-6.4681 10.582-15.088 19.69-24.055 27.876-2.8612 4.7136 3.3489 9.6549 7.75 6.8438 13.615-3.9368 28.766-13.223 30.229-28.705 0.11687-5.5512 3.5348-11.709 0.95814-16.952-1.0057-1.4577-2.8625-2.2462-4.625-2.0312z"/>
</g>
<g id="g8114" fill-rule="evenodd" transform="matrix(.20769 0 0 .20769 -1248.4 -90.061)">
<path id="path8116" fill="#008080" d="m241.89 431.12c-53.59 77.54-107.89 102.01-119.07 121.37-11.193 19.386-5.2046 50.653 17.009 63.478s53.781-0.21451 63.477-17.009c9.6223-16.666 1.4932-80.776 38.581-167.84z"/>
<path id="path8118" fill="url(#linearGradient8520)" d="m201.47 489.06c-1.1986 0.0366-2.3383 0.52825-3.1875 1.375-13.665 13.705-28.179 26.544-43.375 38.438l-0.15625 0.125c-10.413 8.8512-20.995 15.626-27.906 25.656-0.10172 0.14055-0.19562 0.28661-0.28125 0.4375-4.374 8.0981-5.8345 17.919-3.8438 26.75 0.0767 0.34516 0.19206 0.6806 0.34375 1 0.85637 1.7986 2.0955 3.1017 3.5938 4.0625s3.4547 1.9666 6.25 0.9375c0.18136-0.0621 0.35877-0.13511 0.53125-0.21875l0.0625-0.0312v-0.0312c11.213-4.1455 19.516-14.011 28.219-24l0.0937-0.125c16.907-20.913 31.143-43.707 43.969-67.406 0.80904-1.4882 0.75822-3.2959-0.13316-4.7363s-2.4865-2.2925-4.1793-2.2324z"/>
<path id="path8120" fill="url(#linearGradient8522)" d="m196.27 558.65c-5.7557 1.4292-6.4936 9.1221-10.258 12.967-6.4681 10.582-15.088 19.69-24.055 27.876-2.8612 4.7136 3.3489 9.6549 7.75 6.8438 13.615-3.9368 28.766-13.223 30.229-28.705 0.11687-5.5512 3.5348-11.709 0.95814-16.952-1.0057-1.4577-2.8625-2.2462-4.625-2.0312z"/>
</g>
<g id="g8178" fill-rule="evenodd" transform="matrix(.15007 0 0 .15007 -1303.7 -58.347)">
<path id="path8180" fill="#008080" d="m241.89 431.12c-53.59 77.54-107.89 102.01-119.07 121.37-11.193 19.386-5.2046 50.653 17.009 63.478s53.781-0.21451 63.477-17.009c9.6223-16.666 1.4932-80.776 38.581-167.84z"/>
<path id="path8182" fill="url(#linearGradient8520)" d="m201.47 489.06c-1.1986 0.0366-2.3383 0.52825-3.1875 1.375-13.665 13.705-28.179 26.544-43.375 38.438l-0.15625 0.125c-10.413 8.8512-20.995 15.626-27.906 25.656-0.10172 0.14055-0.19562 0.28661-0.28125 0.4375-4.374 8.0981-5.8345 17.919-3.8438 26.75 0.0767 0.34516 0.19206 0.6806 0.34375 1 0.85637 1.7986 2.0955 3.1017 3.5938 4.0625s3.4547 1.9666 6.25 0.9375c0.18136-0.0621 0.35877-0.13511 0.53125-0.21875l0.0625-0.0312v-0.0312c11.213-4.1455 19.516-14.011 28.219-24l0.0937-0.125c16.907-20.913 31.143-43.707 43.969-67.406 0.80904-1.4882 0.75822-3.2959-0.13316-4.7363s-2.4865-2.2925-4.1793-2.2324z"/>
<path id="path8184" fill="url(#linearGradient8522)" d="m196.27 558.65c-5.7557 1.4292-6.4936 9.1221-10.258 12.967-6.4681 10.582-15.088 19.69-24.055 27.876-2.8612 4.7136 3.3489 9.6549 7.75 6.8438 13.615-3.9368 28.766-13.223 30.229-28.705 0.11687-5.5512 3.5348-11.709 0.95814-16.952-1.0057-1.4577-2.8625-2.2462-4.625-2.0312z"/>
</g>
<g id="g8210" fill-rule="evenodd" transform="matrix(.10516 0 0 .10516 -1233.3 -71.265)">
<path id="path8212" fill="#008080" d="m241.89 431.12c-53.59 77.54-107.89 102.01-119.07 121.37-11.193 19.386-5.2046 50.653 17.009 63.478s53.781-0.21451 63.477-17.009c9.6223-16.666 1.4932-80.776 38.581-167.84z"/>
<path id="path8214" fill="url(#linearGradient8520)" d="m201.47 489.06c-1.1986 0.0366-2.3383 0.52825-3.1875 1.375-13.665 13.705-28.179 26.544-43.375 38.438l-0.15625 0.125c-10.413 8.8512-20.995 15.626-27.906 25.656-0.10172 0.14055-0.19562 0.28661-0.28125 0.4375-4.374 8.0981-5.8345 17.919-3.8438 26.75 0.0767 0.34516 0.19206 0.6806 0.34375 1 0.85637 1.7986 2.0955 3.1017 3.5938 4.0625s3.4547 1.9666 6.25 0.9375c0.18136-0.0621 0.35877-0.13511 0.53125-0.21875l0.0625-0.0312v-0.0312c11.213-4.1455 19.516-14.011 28.219-24l0.0937-0.125c16.907-20.913 31.143-43.707 43.969-67.406 0.80904-1.4882 0.75822-3.2959-0.13316-4.7363s-2.4865-2.2925-4.1793-2.2324z"/>
<path id="path8216" fill="url(#linearGradient8522)" d="m196.27 558.65c-5.7557 1.4292-6.4936 9.1221-10.258 12.967-6.4681 10.582-15.088 19.69-24.055 27.876-2.8612 4.7136 3.3489 9.6549 7.75 6.8438 13.615-3.9368 28.766-13.223 30.229-28.705 0.11687-5.5512 3.5348-11.709 0.95814-16.952-1.0057-1.4577-2.8625-2.2462-4.625-2.0312z"/>
</g>
<g id="g8242" fill-rule="evenodd" transform="matrix(.10516 0 0 .10516 -1240.6 -122.7)">
<path id="path8244" fill="#008080" d="m241.89 431.12c-53.59 77.54-107.89 102.01-119.07 121.37-11.193 19.386-5.2046 50.653 17.009 63.478s53.781-0.21451 63.477-17.009c9.6223-16.666 1.4932-80.776 38.581-167.84z"/>
<path id="path8246" fill="url(#linearGradient8520)" d="m201.47 489.06c-1.1986 0.0366-2.3383 0.52825-3.1875 1.375-13.665 13.705-28.179 26.544-43.375 38.438l-0.15625 0.125c-10.413 8.8512-20.995 15.626-27.906 25.656-0.10172 0.14055-0.19562 0.28661-0.28125 0.4375-4.374 8.0981-5.8345 17.919-3.8438 26.75 0.0767 0.34516 0.19206 0.6806 0.34375 1 0.85637 1.7986 2.0955 3.1017 3.5938 4.0625s3.4547 1.9666 6.25 0.9375c0.18136-0.0621 0.35877-0.13511 0.53125-0.21875l0.0625-0.0312v-0.0312c11.213-4.1455 19.516-14.011 28.219-24l0.0937-0.125c16.907-20.913 31.143-43.707 43.969-67.406 0.80904-1.4882 0.75822-3.2959-0.13316-4.7363s-2.4865-2.2925-4.1793-2.2324z"/>
<path id="path8248" fill="url(#linearGradient8522)" d="m196.27 558.65c-5.7557 1.4292-6.4936 9.1221-10.258 12.967-6.4681 10.582-15.088 19.69-24.055 27.876-2.8612 4.7136 3.3489 9.6549 7.75 6.8438 13.615-3.9368 28.766-13.223 30.229-28.705 0.11687-5.5512 3.5348-11.709 0.95814-16.952-1.0057-1.4577-2.8625-2.2462-4.625-2.0312z"/>
</g>
<g id="g8378" fill-rule="evenodd" transform="matrix(.20769 0 0 .20769 -1299.2 -137.78)">
<path id="path8380" fill="#008080" d="m241.89 431.12c-53.59 77.54-107.89 102.01-119.07 121.37-11.193 19.386-5.2046 50.653 17.009 63.478s53.781-0.21451 63.477-17.009c9.6223-16.666 1.4932-80.776 38.581-167.84z"/>
<path id="path8382" fill="url(#linearGradient8520)" d="m201.47 489.06c-1.1986 0.0366-2.3383 0.52825-3.1875 1.375-13.665 13.705-28.179 26.544-43.375 38.438l-0.15625 0.125c-10.413 8.8512-20.995 15.626-27.906 25.656-0.10172 0.14055-0.19562 0.28661-0.28125 0.4375-4.374 8.0981-5.8345 17.919-3.8438 26.75 0.0767 0.34516 0.19206 0.6806 0.34375 1 0.85637 1.7986 2.0955 3.1017 3.5938 4.0625s3.4547 1.9666 6.25 0.9375c0.18136-0.0621 0.35877-0.13511 0.53125-0.21875l0.0625-0.0312v-0.0312c11.213-4.1455 19.516-14.011 28.219-24l0.0937-0.125c16.907-20.913 31.143-43.707 43.969-67.406 0.80904-1.4882 0.75822-3.2959-0.13316-4.7363s-2.4865-2.2925-4.1793-2.2324z"/>
<path id="path8384" fill="url(#linearGradient8522)" d="m196.27 558.65c-5.7557 1.4292-6.4936 9.1221-10.258 12.967-6.4681 10.582-15.088 19.69-24.055 27.876-2.8612 4.7136 3.3489 9.6549 7.75 6.8438 13.615-3.9368 28.766-13.223 30.229-28.705 0.11687-5.5512 3.5348-11.709 0.95814-16.952-1.0057-1.4577-2.8625-2.2462-4.625-2.0312z"/>
</g>
<g id="g8386" fill-rule="evenodd" transform="matrix(.16249 0 0 .16249 -1273.1 -79.264)">
<path id="path8388" fill="#008080" d="m241.89 431.12c-53.59 77.54-107.89 102.01-119.07 121.37-11.193 19.386-5.2046 50.653 17.009 63.478s53.781-0.21451 63.477-17.009c9.6223-16.666 1.4932-80.776 38.581-167.84z"/>
<path id="path8390" fill="url(#linearGradient8520)" d="m201.47 489.06c-1.1986 0.0366-2.3383 0.52825-3.1875 1.375-13.665 13.705-28.179 26.544-43.375 38.438l-0.15625 0.125c-10.413 8.8512-20.995 15.626-27.906 25.656-0.10172 0.14055-0.19562 0.28661-0.28125 0.4375-4.374 8.0981-5.8345 17.919-3.8438 26.75 0.0767 0.34516 0.19206 0.6806 0.34375 1 0.85637 1.7986 2.0955 3.1017 3.5938 4.0625s3.4547 1.9666 6.25 0.9375c0.18136-0.0621 0.35877-0.13511 0.53125-0.21875l0.0625-0.0312v-0.0312c11.213-4.1455 19.516-14.011 28.219-24l0.0937-0.125c16.907-20.913 31.143-43.707 43.969-67.406 0.80904-1.4882 0.75822-3.2959-0.13316-4.7363s-2.4865-2.2925-4.1793-2.2324z"/>
<path id="path8392" fill="url(#linearGradient8522)" d="m196.27 558.65c-5.7557 1.4292-6.4936 9.1221-10.258 12.967-6.4681 10.582-15.088 19.69-24.055 27.876-2.8612 4.7136 3.3489 9.6549 7.75 6.8438 13.615-3.9368 28.766-13.223 30.229-28.705 0.11687-5.5512 3.5348-11.709 0.95814-16.952-1.0057-1.4577-2.8625-2.2462-4.625-2.0312z"/>
</g>
<g id="g8394" fill-rule="evenodd" transform="matrix(.19181 0 0 .19181 -1270.8 -131.71)">
<path id="path8396" fill="#008080" d="m241.89 431.12c-53.59 77.54-107.89 102.01-119.07 121.37-11.193 19.386-5.2046 50.653 17.009 63.478s53.781-0.21451 63.477-17.009c9.6223-16.666 1.4932-80.776 38.581-167.84z"/>
<path id="path8398" fill="url(#linearGradient8520)" d="m201.47 489.06c-1.1986 0.0366-2.3383 0.52825-3.1875 1.375-13.665 13.705-28.179 26.544-43.375 38.438l-0.15625 0.125c-10.413 8.8512-20.995 15.626-27.906 25.656-0.10172 0.14055-0.19562 0.28661-0.28125 0.4375-4.374 8.0981-5.8345 17.919-3.8438 26.75 0.0767 0.34516 0.19206 0.6806 0.34375 1 0.85637 1.7986 2.0955 3.1017 3.5938 4.0625s3.4547 1.9666 6.25 0.9375c0.18136-0.0621 0.35877-0.13511 0.53125-0.21875l0.0625-0.0312v-0.0312c11.213-4.1455 19.516-14.011 28.219-24l0.0937-0.125c16.907-20.913 31.143-43.707 43.969-67.406 0.80904-1.4882 0.75822-3.2959-0.13316-4.7363s-2.4865-2.2925-4.1793-2.2324z"/>
<path id="path8400" fill="url(#linearGradient8522)" d="m196.27 558.65c-5.7557 1.4292-6.4936 9.1221-10.258 12.967-6.4681 10.582-15.088 19.69-24.055 27.876-2.8612 4.7136 3.3489 9.6549 7.75 6.8438 13.615-3.9368 28.766-13.223 30.229-28.705 0.11687-5.5512 3.5348-11.709 0.95814-16.952-1.0057-1.4577-2.8625-2.2462-4.625-2.0312z"/>
</g>
<g id="g8426" fill-rule="evenodd" transform="matrix(.15007 0 0 .15007 -1234.5 .80964)">
<path id="path8428" fill="#008080" d="m241.89 431.12c-53.59 77.54-107.89 102.01-119.07 121.37-11.193 19.386-5.2046 50.653 17.009 63.478s53.781-0.21451 63.477-17.009c9.6223-16.666 1.4932-80.776 38.581-167.84z"/>
<path id="path8430" fill="url(#linearGradient8520)" d="m201.47 489.06c-1.1986 0.0366-2.3383 0.52825-3.1875 1.375-13.665 13.705-28.179 26.544-43.375 38.438l-0.15625 0.125c-10.413 8.8512-20.995 15.626-27.906 25.656-0.10172 0.14055-0.19562 0.28661-0.28125 0.4375-4.374 8.0981-5.8345 17.919-3.8438 26.75 0.0767 0.34516 0.19206 0.6806 0.34375 1 0.85637 1.7986 2.0955 3.1017 3.5938 4.0625s3.4547 1.9666 6.25 0.9375c0.18136-0.0621 0.35877-0.13511 0.53125-0.21875l0.0625-0.0312v-0.0312c11.213-4.1455 19.516-14.011 28.219-24l0.0937-0.125c16.907-20.913 31.143-43.707 43.969-67.406 0.80904-1.4882 0.75822-3.2959-0.13316-4.7363s-2.4865-2.2925-4.1793-2.2324z"/>
<path id="path8432" fill="url(#linearGradient8522)" d="m196.27 558.65c-5.7557 1.4292-6.4936 9.1221-10.258 12.967-6.4681 10.582-15.088 19.69-24.055 27.876-2.8612 4.7136 3.3489 9.6549 7.75 6.8438 13.615-3.9368 28.766-13.223 30.229-28.705 0.11687-5.5512 3.5348-11.709 0.95814-16.952-1.0057-1.4577-2.8625-2.2462-4.625-2.0312z"/>
</g>
<g id="g8438" fill-rule="evenodd" transform="matrix(.10516 0 0 .10516 -1300.6 -122.7)">
<path id="path8440" fill="#008080" d="m241.89 431.12c-53.59 77.54-107.89 102.01-119.07 121.37-11.193 19.386-5.2046 50.653 17.009 63.478s53.781-0.21451 63.477-17.009c9.6223-16.666 1.4932-80.776 38.581-167.84z"/>
<path id="path8442" fill="url(#linearGradient8520)" d="m201.47 489.06c-1.1986 0.0366-2.3383 0.52825-3.1875 1.375-13.665 13.705-28.179 26.544-43.375 38.438l-0.15625 0.125c-10.413 8.8512-20.995 15.626-27.906 25.656-0.10172 0.14055-0.19562 0.28661-0.28125 0.4375-4.374 8.0981-5.8345 17.919-3.8438 26.75 0.0767 0.34516 0.19206 0.6806 0.34375 1 0.85637 1.7986 2.0955 3.1017 3.5938 4.0625s3.4547 1.9666 6.25 0.9375c0.18136-0.0621 0.35877-0.13511 0.53125-0.21875l0.0625-0.0312v-0.0312c11.213-4.1455 19.516-14.011 28.219-24l0.0937-0.125c16.907-20.913 31.143-43.707 43.969-67.406 0.80904-1.4882 0.75822-3.2959-0.13316-4.7363s-2.4865-2.2925-4.1793-2.2324z"/>
<path id="path8444" fill="url(#linearGradient8522)" d="m196.27 558.65c-5.7557 1.4292-6.4936 9.1221-10.258 12.967-6.4681 10.582-15.088 19.69-24.055 27.876-2.8612 4.7136 3.3489 9.6549 7.75 6.8438 13.615-3.9368 28.766-13.223 30.229-28.705 0.11687-5.5512 3.5348-11.709 0.95814-16.952-1.0057-1.4577-2.8625-2.2462-4.625-2.0312z"/>
</g>
<g id="g8452" fill-rule="evenodd" transform="matrix(.20769 0 0 .20769 -1367.5 -189.47)">
<path id="path8454" fill="#008080" d="m241.89 431.12c-53.59 77.54-107.89 102.01-119.07 121.37-11.193 19.386-5.2046 50.653 17.009 63.478s53.781-0.21451 63.477-17.009c9.6223-16.666 1.4932-80.776 38.581-167.84z"/>
<path id="path8456" fill="url(#linearGradient8520)" d="m201.47 489.06c-1.1986 0.0366-2.3383 0.52825-3.1875 1.375-13.665 13.705-28.179 26.544-43.375 38.438l-0.15625 0.125c-10.413 8.8512-20.995 15.626-27.906 25.656-0.10172 0.14055-0.19562 0.28661-0.28125 0.4375-4.374 8.0981-5.8345 17.919-3.8438 26.75 0.0767 0.34516 0.19206 0.6806 0.34375 1 0.85637 1.7986 2.0955 3.1017 3.5938 4.0625s3.4547 1.9666 6.25 0.9375c0.18136-0.0621 0.35877-0.13511 0.53125-0.21875l0.0625-0.0312v-0.0312c11.213-4.1455 19.516-14.011 28.219-24l0.0937-0.125c16.907-20.913 31.143-43.707 43.969-67.406 0.80904-1.4882 0.75822-3.2959-0.13316-4.7363s-2.4865-2.2925-4.1793-2.2324z"/>
<path id="path8458" fill="url(#linearGradient8522)" d="m196.27 558.65c-5.7557 1.4292-6.4936 9.1221-10.258 12.967-6.4681 10.582-15.088 19.69-24.055 27.876-2.8612 4.7136 3.3489 9.6549 7.75 6.8438 13.615-3.9368 28.766-13.223 30.229-28.705 0.11687-5.5512 3.5348-11.709 0.95814-16.952-1.0057-1.4577-2.8625-2.2462-4.625-2.0312z"/>
</g>
<g id="g8464" fill-rule="evenodd" transform="matrix(.20769 0 0 .20769 -1292.6 -190.07)">
<path id="path8466" fill="#008080" d="m241.89 431.12c-53.59 77.54-107.89 102.01-119.07 121.37-11.193 19.386-5.2046 50.653 17.009 63.478s53.781-0.21451 63.477-17.009c9.6223-16.666 1.4932-80.776 38.581-167.84z"/>
<path id="path8468" fill="url(#linearGradient8520)" d="m201.47 489.06c-1.1986 0.0366-2.3383 0.52825-3.1875 1.375-13.665 13.705-28.179 26.544-43.375 38.438l-0.15625 0.125c-10.413 8.8512-20.995 15.626-27.906 25.656-0.10172 0.14055-0.19562 0.28661-0.28125 0.4375-4.374 8.0981-5.8345 17.919-3.8438 26.75 0.0767 0.34516 0.19206 0.6806 0.34375 1 0.85637 1.7986 2.0955 3.1017 3.5938 4.0625s3.4547 1.9666 6.25 0.9375c0.18136-0.0621 0.35877-0.13511 0.53125-0.21875l0.0625-0.0312v-0.0312c11.213-4.1455 19.516-14.011 28.219-24l0.0937-0.125c16.907-20.913 31.143-43.707 43.969-67.406 0.80904-1.4882 0.75822-3.2959-0.13316-4.7363s-2.4865-2.2925-4.1793-2.2324z"/>
<path id="path8470" fill="url(#linearGradient8522)" d="m196.27 558.65c-5.7557 1.4292-6.4936 9.1221-10.258 12.967-6.4681 10.582-15.088 19.69-24.055 27.876-2.8612 4.7136 3.3489 9.6549 7.75 6.8438 13.615-3.9368 28.766-13.223 30.229-28.705 0.11687-5.5512 3.5348-11.709 0.95814-16.952-1.0057-1.4577-2.8625-2.2462-4.625-2.0312z"/>
</g>
<g id="g8476" fill-rule="evenodd" transform="matrix(.11387 0 0 .11387 -1210.5 -132.48)">
<path id="path8478" fill="#008080" d="m241.89 431.12c-53.59 77.54-107.89 102.01-119.07 121.37-11.193 19.386-5.2046 50.653 17.009 63.478s53.781-0.21451 63.477-17.009c9.6223-16.666 1.4932-80.776 38.581-167.84z"/>
<path id="path8480" fill="url(#linearGradient8520)" d="m201.47 489.06c-1.1986 0.0366-2.3383 0.52825-3.1875 1.375-13.665 13.705-28.179 26.544-43.375 38.438l-0.15625 0.125c-10.413 8.8512-20.995 15.626-27.906 25.656-0.10172 0.14055-0.19562 0.28661-0.28125 0.4375-4.374 8.0981-5.8345 17.919-3.8438 26.75 0.0767 0.34516 0.19206 0.6806 0.34375 1 0.85637 1.7986 2.0955 3.1017 3.5938 4.0625s3.4547 1.9666 6.25 0.9375c0.18136-0.0621 0.35877-0.13511 0.53125-0.21875l0.0625-0.0312v-0.0312c11.213-4.1455 19.516-14.011 28.219-24l0.0937-0.125c16.907-20.913 31.143-43.707 43.969-67.406 0.80904-1.4882 0.75822-3.2959-0.13316-4.7363s-2.4865-2.2925-4.1793-2.2324z"/>
<path id="path8482" fill="url(#linearGradient8522)" d="m196.27 558.65c-5.7557 1.4292-6.4936 9.1221-10.258 12.967-6.4681 10.582-15.088 19.69-24.055 27.876-2.8612 4.7136 3.3489 9.6549 7.75 6.8438 13.615-3.9368 28.766-13.223 30.229-28.705 0.11687-5.5512 3.5348-11.709 0.95814-16.952-1.0057-1.4577-2.8625-2.2462-4.625-2.0312z"/>
</g>
<g id="g8484" fill-rule="evenodd" transform="matrix(.16249 0 0 .16249 -1215.5 -123.42)">
<path id="path8486" fill="#008080" d="m241.89 431.12c-53.59 77.54-107.89 102.01-119.07 121.37-11.193 19.386-5.2046 50.653 17.009 63.478s53.781-0.21451 63.477-17.009c9.6223-16.666 1.4932-80.776 38.581-167.84z"/>
<path id="path8488" fill="url(#linearGradient8520)" d="m201.47 489.06c-1.1986 0.0366-2.3383 0.52825-3.1875 1.375-13.665 13.705-28.179 26.544-43.375 38.438l-0.15625 0.125c-10.413 8.8512-20.995 15.626-27.906 25.656-0.10172 0.14055-0.19562 0.28661-0.28125 0.4375-4.374 8.0981-5.8345 17.919-3.8438 26.75 0.0767 0.34516 0.19206 0.6806 0.34375 1 0.85637 1.7986 2.0955 3.1017 3.5938 4.0625s3.4547 1.9666 6.25 0.9375c0.18136-0.0621 0.35877-0.13511 0.53125-0.21875l0.0625-0.0312v-0.0312c11.213-4.1455 19.516-14.011 28.219-24l0.0937-0.125c16.907-20.913 31.143-43.707 43.969-67.406 0.80904-1.4882 0.75822-3.2959-0.13316-4.7363s-2.4865-2.2925-4.1793-2.2324z"/>
<path id="path8490" fill="url(#linearGradient8522)" d="m196.27 558.65c-5.7557 1.4292-6.4936 9.1221-10.258 12.967-6.4681 10.582-15.088 19.69-24.055 27.876-2.8612 4.7136 3.3489 9.6549 7.75 6.8438 13.615-3.9368 28.766-13.223 30.229-28.705 0.11687-5.5512 3.5348-11.709 0.95814-16.952-1.0057-1.4577-2.8625-2.2462-4.625-2.0312z"/>
</g>
<g id="g8492" fill-rule="evenodd" transform="matrix(.19181 0 0 .19181 -1217.9 -98.891)">
<path id="path8494" fill="#008080" d="m241.89 431.12c-53.59 77.54-107.89 102.01-119.07 121.37-11.193 19.386-5.2046 50.653 17.009 63.478s53.781-0.21451 63.477-17.009c9.6223-16.666 1.4932-80.776 38.581-167.84z"/>
<path id="path8496" fill="url(#linearGradient8520)" d="m201.47 489.06c-1.1986 0.0366-2.3383 0.52825-3.1875 1.375-13.665 13.705-28.179 26.544-43.375 38.438l-0.15625 0.125c-10.413 8.8512-20.995 15.626-27.906 25.656-0.10172 0.14055-0.19562 0.28661-0.28125 0.4375-4.374 8.0981-5.8345 17.919-3.8438 26.75 0.0767 0.34516 0.19206 0.6806 0.34375 1 0.85637 1.7986 2.0955 3.1017 3.5938 4.0625s3.4547 1.9666 6.25 0.9375c0.18136-0.0621 0.35877-0.13511 0.53125-0.21875l0.0625-0.0312v-0.0312c11.213-4.1455 19.516-14.011 28.219-24l0.0937-0.125c16.907-20.913 31.143-43.707 43.969-67.406 0.80904-1.4882 0.75822-3.2959-0.13316-4.7363s-2.4865-2.2925-4.1793-2.2324z"/>
<path id="path8498" fill="url(#linearGradient8522)" d="m196.27 558.65c-5.7557 1.4292-6.4936 9.1221-10.258 12.967-6.4681 10.582-15.088 19.69-24.055 27.876-2.8612 4.7136 3.3489 9.6549 7.75 6.8438 13.615-3.9368 28.766-13.223 30.229-28.705 0.11687-5.5512 3.5348-11.709 0.95814-16.952-1.0057-1.4577-2.8625-2.2462-4.625-2.0312z"/>
</g>
<g id="g8500" fill-rule="evenodd" transform="matrix(.10516 0 0 .10516 -1206.4 20.61)">
<path id="path8502" fill="#008080" d="m241.89 431.12c-53.59 77.54-107.89 102.01-119.07 121.37-11.193 19.386-5.2046 50.653 17.009 63.478s53.781-0.21451 63.477-17.009c9.6223-16.666 1.4932-80.776 38.581-167.84z"/>
<path id="path8504" fill="url(#linearGradient8520)" d="m201.47 489.06c-1.1986 0.0366-2.3383 0.52825-3.1875 1.375-13.665 13.705-28.179 26.544-43.375 38.438l-0.15625 0.125c-10.413 8.8512-20.995 15.626-27.906 25.656-0.10172 0.14055-0.19562 0.28661-0.28125 0.4375-4.374 8.0981-5.8345 17.919-3.8438 26.75 0.0767 0.34516 0.19206 0.6806 0.34375 1 0.85637 1.7986 2.0955 3.1017 3.5938 4.0625s3.4547 1.9666 6.25 0.9375c0.18136-0.0621 0.35877-0.13511 0.53125-0.21875l0.0625-0.0312v-0.0312c11.213-4.1455 19.516-14.011 28.219-24l0.0937-0.125c16.907-20.913 31.143-43.707 43.969-67.406 0.80904-1.4882 0.75822-3.2959-0.13316-4.7363s-2.4865-2.2925-4.1793-2.2324z"/>
<path id="path8506" fill="url(#linearGradient8522)" d="m196.27 558.65c-5.7557 1.4292-6.4936 9.1221-10.258 12.967-6.4681 10.582-15.088 19.69-24.055 27.876-2.8612 4.7136 3.3489 9.6549 7.75 6.8438 13.615-3.9368 28.766-13.223 30.229-28.705 0.11687-5.5512 3.5348-11.709 0.95814-16.952-1.0057-1.4577-2.8625-2.2462-4.625-2.0312z"/>
</g>
</g>
</pattern>
</defs>
<g id="layer1" transform="translate(1367.6 439.51)">
<rect id="rect10480" height="540" width="540" y="-439.51" x="-1367.6" fill="url(#pattern10754)"/>
</g>
</svg>
